<svg width="25" height="25" viewBox="0 0 25 25" fill="none" xmlns="http://www.w3.org/2000/svg">
<path d="M12.5 6.70837V10.1771M12.5209 2.08337C8.68752 2.08337 5.58335 5.18754 5.58335 9.02087V11.2084C5.58335 11.9167 5.29168 12.9792 4.9271 13.5834L3.60418 15.7917C2.79168 17.1563 3.35418 18.6771 4.85418 19.1771C9.83468 20.8334 15.2174 20.8334 20.1979 19.1771C20.5266 19.0675 20.8264 18.8854 21.0752 18.6444C21.324 18.4033 21.5155 18.1094 21.6355 17.7844C21.7555 17.4595 21.801 17.1116 21.7685 16.7667C21.736 16.4218 21.6265 16.0886 21.4479 15.7917L20.125 13.5834C19.7604 12.9792 19.4688 11.9063 19.4688 11.2084V9.02087C19.4584 5.20837 16.3334 2.08337 12.5209 2.08337Z" stroke="#FF5E5E" stroke-miterlimit="10" stroke-linecap="round"/>
<path d="M15.9688 19.6041C15.9688 21.5104 14.4063 23.0729 12.5 23.0729C11.5521 23.0729 10.6771 22.677 10.0521 22.052C9.42708 21.427 9.03125 20.552 9.03125 19.6041" stroke="#FF5E5E" stroke-miterlimit="10"/>
</svg>
