<svg width="24" height="24" viewBox="0 0 24 24" fill="none" xmlns="http://www.w3.org/2000/svg">
<path d="M4 9C4 8.44772 4.44772 8 5 8H19C19.5523 8 20 8.44772 20 9V18C20 20.2091 18.2091 22 16 22H8C5.79086 22 4 20.2091 4 18V9Z" fill="#FF5E5E"/>
<path d="M7.49995 7.66938V6.69938C7.49995 4.44938 9.30995 2.23938 11.5599 2.02938C12.1851 1.96795 12.8162 2.0381 13.4127 2.23531C14.0091 2.43252 14.5576 2.75242 15.0229 3.17442C15.4883 3.59642 15.8601 4.11117 16.1145 4.68555C16.3689 5.25992 16.5002 5.88119 16.4999 6.50938V7.88938M8.99995 21.9994H14.9999C19.0199 21.9994 19.7399 20.3894 19.9499 18.4294L20.6999 12.4294C20.9699 9.98938 20.2699 7.99938 15.9999 7.99938H7.99995C3.72995 7.99938 3.02995 9.98938 3.29995 12.4294L4.04995 18.4294C4.25995 20.3894 4.97995 21.9994 8.99995 21.9994Z" stroke="#FF5E5E" stroke-width="1.5" stroke-miterlimit="10" stroke-linecap="round" stroke-linejoin="round"/>
<path d="M15.495 12H15.505M8.495 12H8.503" stroke="white" stroke-width="2" stroke-linecap="round" stroke-linejoin="round"/>
</svg>
