<svg width="24" height="24" viewBox="0 0 24 24" fill="none" xmlns="http://www.w3.org/2000/svg">
<path d="M12.16 10.8707C12.06 10.8607 11.94 10.8607 11.83 10.8707C10.6822 10.8318 9.59461 10.3476 8.7976 9.52068C8.00059 8.6938 7.55671 7.58917 7.55997 6.44072C7.55997 3.99072 9.53997 2.00072 12 2.00072C12.5824 1.99022 13.1612 2.09453 13.7033 2.3077C14.2454 2.52087 14.7402 2.83874 15.1594 3.24313C15.5787 3.64753 15.9142 4.13055 16.1468 4.66461C16.3793 5.19867 16.5045 5.77331 16.515 6.35572C16.5255 6.93813 16.4212 7.51691 16.208 8.05901C15.9948 8.60111 15.677 9.09591 15.2726 9.51517C14.8682 9.93443 14.3851 10.2699 13.8511 10.5025C13.317 10.7351 12.7424 10.8602 12.16 10.8707ZM7.15997 14.5607C4.73997 16.1807 4.73997 18.8207 7.15997 20.4307C9.90997 22.2707 14.42 22.2707 17.17 20.4307C19.59 18.8107 19.59 16.1707 17.17 14.5607C14.43 12.7307 9.91997 12.7307 7.15997 14.5607Z" fill="#FF5E5E" stroke="#FF5E5E" stroke-width="1.5" stroke-linecap="round" stroke-linejoin="round"/>
</svg>
