<svg width="24" height="24" viewBox="0 0 24 24" fill="none" xmlns="http://www.w3.org/2000/svg">
<path d="M14.53 9.46984L9.46996 14.5298C8.79896 13.8588 8.422 12.9488 8.422 11.9998C8.422 11.53 8.51454 11.0647 8.69435 10.6306C8.87416 10.1965 9.13771 9.80208 9.46996 9.46984C9.8022 9.13759 10.1966 8.87404 10.6307 8.69423C11.0648 8.51442 11.5301 8.42188 12 8.42188C12.9489 8.42188 13.859 8.79884 14.53 9.46984Z" stroke="#181818" stroke-width="1.5" stroke-linecap="round" stroke-linejoin="round"/>
<path d="M17.82 5.77047C16.07 4.45047 14.07 3.73047 12 3.73047C8.46997 3.73047 5.17997 5.81047 2.88997 9.41047C1.98997 10.8205 1.98997 13.1905 2.88997 14.6005C3.67997 15.8405 4.59997 16.9105 5.59997 17.7705M8.41997 19.5305C9.55997 20.0105 10.77 20.2705 12 20.2705C15.53 20.2705 18.82 18.1905 21.11 14.5905C22.01 13.1805 22.01 10.8105 21.11 9.40047C20.78 8.88047 20.42 8.39047 20.05 7.93047" stroke="#181818" stroke-width="1.5" stroke-linecap="round" stroke-linejoin="round"/>
<path d="M15.51 12.7C15.3745 13.3976 15.0337 14.0387 14.5312 14.5412C14.0287 15.0437 13.3876 15.3845 12.69 15.52M9.47 14.53L2 22M22 2L14.53 9.47" stroke="#181818" stroke-width="1.5" stroke-linecap="round" stroke-linejoin="round"/>
</svg>
